<mxfile host="app.diagrams.net" modified="2020-10-01T06:27:07.315Z" agent="5.0 (Windows NT 10.0; Win64; x64) AppleWebKit/537.36 (KHTML, like Gecko) Chrome/85.0.4183.121 Safari/537.36" etag="gN_kpfxxQouS7lS7gTAh" version="13.7.7" type="github" pages="3">
  <diagram id="xtvKybhS-eKnbHWTd6si" name="Page-1">
    <mxGraphModel dx="2249" dy="762" grid="1" gridSize="10" guides="1" tooltips="1" connect="1" arrows="1" fold="1" page="1" pageScale="1" pageWidth="827" pageHeight="1169" math="0" shadow="0">
      <root>
        <mxCell id="0" />
        <mxCell id="1" parent="0" />
        <mxCell id="FBA6qkvMR7iT_2Y2TpfK-1" value="" style="whiteSpace=wrap;html=1;aspect=fixed;" vertex="1" parent="1">
          <mxGeometry x="-720" width="480" height="480" as="geometry" />
        </mxCell>
        <mxCell id="FBA6qkvMR7iT_2Y2TpfK-2" value="" style="verticalLabelPosition=bottom;verticalAlign=top;html=1;shape=trapezoid;perimeter=trapezoidPerimeter;whiteSpace=wrap;size=0.23;arcSize=10;flipV=1;strokeColor=#B09500;fontColor=#ffffff;fillColor=#FFE100;" vertex="1" parent="1">
          <mxGeometry x="-705" y="110" width="445" height="320" as="geometry" />
        </mxCell>
        <mxCell id="FBA6qkvMR7iT_2Y2TpfK-3" value="" style="shape=document;whiteSpace=wrap;html=1;boundedLbl=1;rotation=-180;" vertex="1" parent="1">
          <mxGeometry x="-710" y="10" width="450" height="110" as="geometry" />
        </mxCell>
        <mxCell id="FBA6qkvMR7iT_2Y2TpfK-4" value="&lt;font face=&quot;Times New Roman&quot; style=&quot;font-size: 31px&quot;&gt;Inició de sesión&amp;nbsp;&lt;/font&gt;" style="rounded=0;whiteSpace=wrap;html=1;fillColor=#FFE100;gradientColor=none;" vertex="1" parent="1">
          <mxGeometry x="-602.5" y="330" width="240" height="30" as="geometry" />
        </mxCell>
        <mxCell id="FBA6qkvMR7iT_2Y2TpfK-5" value="&lt;font face=&quot;Times New Roman&quot; style=&quot;font-size: 31px&quot;&gt;Contraseña&lt;/font&gt;" style="rounded=0;whiteSpace=wrap;html=1;fillColor=#FFE100;gradientColor=none;" vertex="1" parent="1">
          <mxGeometry x="-610" y="250" width="260" height="40" as="geometry" />
        </mxCell>
        <mxCell id="FBA6qkvMR7iT_2Y2TpfK-6" value="&lt;font face=&quot;Times New Roman&quot; style=&quot;font-size: 31px&quot;&gt;&lt;font style=&quot;font-size: 31px&quot;&gt;Usuario&lt;/font&gt;&lt;font style=&quot;font-size: 31px&quot;&gt;&amp;nbsp;&lt;/font&gt;&lt;/font&gt;" style="rounded=0;whiteSpace=wrap;html=1;fillColor=#FFE100;gradientColor=none;fontSize=15;" vertex="1" parent="1">
          <mxGeometry x="-617.5" y="170" width="270" height="40" as="geometry" />
        </mxCell>
        <mxCell id="FBA6qkvMR7iT_2Y2TpfK-7" value="&lt;font style=&quot;font-size: 32px&quot;&gt;Logo&lt;/font&gt;" style="ellipse;whiteSpace=wrap;html=1;fillColor=#FFE100;gradientColor=none;fontSize=15;" vertex="1" parent="1">
          <mxGeometry x="-630" y="40" width="270" height="70" as="geometry" />
        </mxCell>
      </root>
    </mxGraphModel>
  </diagram>
  <diagram id="FzNu0TFh9L0_dH_xcZLu" name="Page-2">
    <mxGraphModel dx="2249" dy="762" grid="1" gridSize="10" guides="1" tooltips="1" connect="1" arrows="1" fold="1" page="1" pageScale="1" pageWidth="827" pageHeight="1169" math="0" shadow="0">
      <root>
        <mxCell id="-T1YuBtyJTV0iI_CP3Ea-0" />
        <mxCell id="-T1YuBtyJTV0iI_CP3Ea-1" parent="-T1YuBtyJTV0iI_CP3Ea-0" />
        <mxCell id="-T1YuBtyJTV0iI_CP3Ea-2" value="" style="whiteSpace=wrap;html=1;aspect=fixed;" vertex="1" parent="-T1YuBtyJTV0iI_CP3Ea-1">
          <mxGeometry x="-552.5" y="460" width="480" height="480" as="geometry" />
        </mxCell>
        <mxCell id="-T1YuBtyJTV0iI_CP3Ea-3" value="" style="shape=offPageConnector;whiteSpace=wrap;html=1;fillColor=#FFE100;gradientColor=none;fontSize=31;" vertex="1" parent="-T1YuBtyJTV0iI_CP3Ea-1">
          <mxGeometry x="-510.25" y="570" width="423.5" height="250" as="geometry" />
        </mxCell>
        <mxCell id="-T1YuBtyJTV0iI_CP3Ea-4" value="" style="shape=loopLimit;whiteSpace=wrap;html=1;fillColor=#FFE100;gradientColor=none;fontSize=31;rotation=-180;" vertex="1" parent="-T1YuBtyJTV0iI_CP3Ea-1">
          <mxGeometry x="-509.99" y="720" width="423.25" height="190" as="geometry" />
        </mxCell>
        <mxCell id="-T1YuBtyJTV0iI_CP3Ea-5" value="" style="shape=document;whiteSpace=wrap;html=1;boundedLbl=1;rotation=-180;verticalAlign=middle;" vertex="1" parent="-T1YuBtyJTV0iI_CP3Ea-1">
          <mxGeometry x="-492.5" y="470" width="360" height="90" as="geometry" />
        </mxCell>
        <mxCell id="-T1YuBtyJTV0iI_CP3Ea-6" value="&lt;font style=&quot;font-size: 32px&quot;&gt;Logo&lt;/font&gt;" style="ellipse;whiteSpace=wrap;html=1;fillColor=#FFE100;gradientColor=none;fontSize=15;" vertex="1" parent="-T1YuBtyJTV0iI_CP3Ea-1">
          <mxGeometry x="-400" y="500" width="203" height="50" as="geometry" />
        </mxCell>
        <mxCell id="-T1YuBtyJTV0iI_CP3Ea-7" value="" style="rounded=1;whiteSpace=wrap;html=1;fillColor=#FFE100;gradientColor=none;fontSize=31;" vertex="1" parent="-T1YuBtyJTV0iI_CP3Ea-1">
          <mxGeometry x="-484.25" y="730" width="364.25" height="50" as="geometry" />
        </mxCell>
        <mxCell id="-T1YuBtyJTV0iI_CP3Ea-8" value="" style="rounded=1;whiteSpace=wrap;html=1;fillColor=#FFE100;gradientColor=none;fontSize=31;" vertex="1" parent="-T1YuBtyJTV0iI_CP3Ea-1">
          <mxGeometry x="-484.25" y="630" width="343.5" height="50" as="geometry" />
        </mxCell>
        <mxCell id="-T1YuBtyJTV0iI_CP3Ea-9" value="&lt;span style=&quot;font-family: &amp;#34;times new roman&amp;#34;&quot;&gt;&lt;font style=&quot;font-size: 35px&quot;&gt;Inició de sesión&amp;nbsp;&lt;/font&gt;&lt;/span&gt;" style="rounded=1;whiteSpace=wrap;html=1;fillColor=#FFE100;gradientColor=none;fontSize=31;" vertex="1" parent="-T1YuBtyJTV0iI_CP3Ea-1">
          <mxGeometry x="-483.37" y="820" width="370" height="50" as="geometry" />
        </mxCell>
        <mxCell id="-T1YuBtyJTV0iI_CP3Ea-10" value="Usuario *" style="text;html=1;strokeColor=none;fillColor=none;align=center;verticalAlign=middle;whiteSpace=wrap;rounded=0;fontSize=30;" vertex="1" parent="-T1YuBtyJTV0iI_CP3Ea-1">
          <mxGeometry x="-484.25" y="585" width="140" height="20" as="geometry" />
        </mxCell>
        <mxCell id="-T1YuBtyJTV0iI_CP3Ea-11" value="&lt;font style=&quot;font-size: 27px&quot;&gt;Contraseña*&lt;/font&gt;" style="text;html=1;strokeColor=none;fillColor=none;align=center;verticalAlign=middle;whiteSpace=wrap;rounded=0;fontSize=30;" vertex="1" parent="-T1YuBtyJTV0iI_CP3Ea-1">
          <mxGeometry x="-450" y="700" width="60" height="20" as="geometry" />
        </mxCell>
      </root>
    </mxGraphModel>
  </diagram>
  <diagram id="zRN1F0kNONA6s0PYqE1o" name="Page-3">
    <mxGraphModel dx="2249" dy="762" grid="1" gridSize="10" guides="1" tooltips="1" connect="1" arrows="1" fold="1" page="1" pageScale="1" pageWidth="827" pageHeight="1169" math="0" shadow="0">
      <root>
        <mxCell id="6_R9OX6qBNHlAfySgqB_-0" />
        <mxCell id="6_R9OX6qBNHlAfySgqB_-1" parent="6_R9OX6qBNHlAfySgqB_-0" />
        <mxCell id="6_R9OX6qBNHlAfySgqB_-2" value="" style="whiteSpace=wrap;html=1;aspect=fixed;" vertex="1" parent="6_R9OX6qBNHlAfySgqB_-1">
          <mxGeometry x="-500" y="350" width="480" height="480" as="geometry" />
        </mxCell>
        <mxCell id="6_R9OX6qBNHlAfySgqB_-3" value="&lt;font style=&quot;font-size: 32px&quot;&gt;Logo&lt;/font&gt;" style="ellipse;whiteSpace=wrap;html=1;fontSize=15;" vertex="1" parent="6_R9OX6qBNHlAfySgqB_-1">
          <mxGeometry x="-390" y="440" width="290" height="90" as="geometry" />
        </mxCell>
        <mxCell id="6_R9OX6qBNHlAfySgqB_-4" value="&lt;span style=&quot;color: rgba(0 , 0 , 0 , 0) ; font-family: monospace ; font-size: 0px&quot;&gt;%3CmxGraphModel%3E%3Croot%3E%3CmxCell%20id%3D%220%22%2F%3E%3CmxCell%20id%3D%221%22%20parent%3D%220%22%2F%3E%3CmxCell%20id%3D%222%22%20value%3D%22%26lt%3Bfont%20style%3D%26quot%3Bfont-size%3A%2045px%26quot%3B%20face%3D%26quot%3BTimes%20New%20Roman%26quot%3B%26gt%3BContrase%C3%B1a%26lt%3B%2Ffont%26gt%3B%22%20style%3D%22rounded%3D0%3BwhiteSpace%3Dwrap%3Bhtml%3D1%3BfillColor%3D%23FFE100%3BgradientColor%3Dnone%3B%22%20vertex%3D%221%22%20parent%3D%221%22%3E%3CmxGeometry%20x%3D%22-420%22%20y%3D%22680%22%20width%3D%22460%22%20height%3D%22100%22%20as%3D%22geometry%22%2F%3E%3C%2FmxCell%3E%3CmxCell%20id%3D%223%22%20value%3D%22%26lt%3Bfont%20face%3D%26quot%3BTimes%20New%20Roman%26quot%3B%26gt%3B%26lt%3Bfont%20style%3D%26quot%3Bfont-size%3A%2045px%26quot%3B%26gt%3BUsuario%26lt%3B%2Ffont%26gt%3B%26lt%3Bfont%20style%3D%26quot%3Bfont-size%3A%2030px%26quot%3B%26gt%3B%26amp%3Bnbsp%3B%26lt%3B%2Ffont%26gt%3B%26lt%3B%2Ffont%26gt%3B%22%20style%3D%22rounded%3D0%3BwhiteSpace%3Dwrap%3Bhtml%3D1%3BfillColor%3D%23FFE100%3BgradientColor%3Dnone%3BfontSize%3D15%3B%22%20vertex%3D%221%22%20parent%3D%221%22%3E%3CmxGeometry%20x%3D%22-410%22%20y%3D%22500%22%20width%3D%22460%22%20height%3D%22100%22%20as%3D%22geometry%22%2F%3E%3C%2FmxCell%3E%3C%2Froot%3E%3C%2FmxGraphModel%3E&lt;/span&gt;&lt;span style=&quot;color: rgba(0 , 0 , 0 , 0) ; font-family: monospace ; font-size: 0px&quot;&gt;%3CmxGraphModel%3E%3Croot%3E%3CmxCell%20id%3D%220%22%2F%3E%3CmxCell%20id%3D%221%22%20parent%3D%220%22%2F%3E%3CmxCell%20id%3D%222%22%20value%3D%22%26lt%3Bfont%20style%3D%26quot%3Bfont-size%3A%2045px%26quot%3B%20face%3D%26quot%3BTimes%20New%20Roman%26quot%3B%26gt%3BContrase%C3%B1a%26lt%3B%2Ffont%26gt%3B%22%20style%3D%22rounded%3D0%3BwhiteSpace%3Dwrap%3Bhtml%3D1%3BfillColor%3D%23FFE100%3BgradientColor%3Dnone%3B%22%20vertex%3D%221%22%20parent%3D%221%22%3E%3CmxGeometry%20x%3D%22-420%22%20y%3D%22680%22%20width%3D%22460%22%20height%3D%22100%22%20as%3D%22geometry%22%2F%3E%3C%2FmxCell%3E%3CmxCell%20id%3D%223%22%20value%3D%22%26lt%3Bfont%20face%3D%26quot%3BTimes%20New%20Roman%26quot%3B%26gt%3B%26lt%3Bfont%20style%3D%26quot%3Bfont-size%3A%2045px%26quot%3B%26gt%3BUsuario%26lt%3B%2Ffont%26gt%3B%26lt%3Bfont%20style%3D%26quot%3Bfont-size%3A%2030px%26quot%3B%26gt%3B%26amp%3Bnbsp%3B%26lt%3B%2Ffont%26gt%3B%26lt%3B%2Ffont%26gt%3B%22%20style%3D%22rounded%3D0%3BwhiteSpace%3Dwrap%3Bhtml%3D1%3BfillColor%3D%23FFE100%3BgradientColor%3Dnone%3BfontSize%3D15%3B%22%20vertex%3D%221%22%20parent%3D%221%22%3E%3CmxGeometry%20x%3D%22-410%22%20y%3D%22500%22%20width%3D%22460%22%20height%3D%22100%22%20as%3D%22geometry%22%2F%3E%3C%2FmxCell%3E%3C%2Froot%3E%3C%2FmxGraphModel%3E&lt;/span&gt;&lt;span style=&quot;color: rgba(0 , 0 , 0 , 0) ; font-family: monospace ; font-size: 0px&quot;&gt;%3CmxGraphModel%3E%3Croot%3E%3CmxCell%20id%3D%220%22%2F%3E%3CmxCell%20id%3D%221%22%20parent%3D%220%22%2F%3E%3CmxCell%20id%3D%222%22%20value%3D%22%26lt%3Bfont%20style%3D%26quot%3Bfont-size%3A%2045px%26quot%3B%20face%3D%26quot%3BTimes%20New%20Roman%26quot%3B%26gt%3BContrase%C3%B1a%26lt%3B%2Ffont%26gt%3B%22%20style%3D%22rounded%3D0%3BwhiteSpace%3Dwrap%3Bhtml%3D1%3BfillColor%3D%23FFE100%3BgradientColor%3Dnone%3B%22%20vertex%3D%221%22%20parent%3D%221%22%3E%3CmxGeometry%20x%3D%22-420%22%20y%3D%22680%22%20width%3D%22460%22%20height%3D%22100%22%20as%3D%22geometry%22%2F%3E%3C%2FmxCell%3E%3CmxCell%20id%3D%223%22%20value%3D%22%26lt%3Bfont%20face%3D%26quot%3BTimes%20New%20Roman%26quot%3B%26gt%3B%26lt%3Bfont%20style%3D%26quot%3Bfont-size%3A%2045px%26quot%3B%26gt%3BUsuario%26lt%3B%2Ffont%26gt%3B%26lt%3Bfont%20style%3D%26quot%3Bfont-size%3A%2030px%26quot%3B%26gt%3B%26amp%3Bnbsp%3B%26lt%3B%2Ffont%26gt%3B%26lt%3B%2Ffont%26gt%3B%22%20style%3D%22rounded%3D0%3BwhiteSpace%3Dwrap%3Bhtml%3D1%3BfillColor%3D%23FFE100%3BgradientColor%3Dnone%3BfontSize%3D15%3B%22%20vertex%3D%221%22%20parent%3D%221%22%3E%3CmxGeometry%20x%3D%22-410%22%20y%3D%22500%22%20width%3D%22460%22%20height%3D%22100%22%20as%3D%22geometry%22%2F%3E%3C%2FmxCell%3E%3C%2Froot%3E%3C%2FmxGraphModel%3E&lt;/span&gt;&lt;span style=&quot;color: rgba(0 , 0 , 0 , 0) ; font-family: monospace ; font-size: 0px&quot;&gt;%3CmxGraphModel%3E%3Croot%3E%3CmxCell%20id%3D%220%22%2F%3E%3CmxCell%20id%3D%221%22%20parent%3D%220%22%2F%3E%3CmxCell%20id%3D%222%22%20value%3D%22%26lt%3Bfont%20style%3D%26quot%3Bfont-size%3A%2045px%26quot%3B%20face%3D%26quot%3BTimes%20New%20Roman%26quot%3B%26gt%3BContrase%C3%B1a%26lt%3B%2Ffont%26gt%3B%22%20style%3D%22rounded%3D0%3BwhiteSpace%3Dwrap%3Bhtml%3D1%3BfillColor%3D%23FFE100%3BgradientColor%3Dnone%3B%22%20vertex%3D%221%22%20parent%3D%221%22%3E%3CmxGeometry%20x%3D%22-420%22%20y%3D%22680%22%20width%3D%22460%22%20height%3D%22100%22%20as%3D%22geometry%22%2F%3E%3C%2FmxCell%3E%3CmxCell%20id%3D%223%22%20value%3D%22%26lt%3Bfont%20face%3D%26quot%3BTimes%20New%20Roman%26quot%3B%26gt%3B%26lt%3Bfont%20style%3D%26quot%3Bfont-size%3A%2045px%26quot%3B%26gt%3BUsuario%26lt%3B%2Ffont%26gt%3B%26lt%3Bfont%20style%3D%26quot%3Bfont-size%3A%2030px%26quot%3B%26gt%3B%26amp%3Bnbsp%3B%26lt%3B%2Ffont%26gt%3B%26lt%3B%2Ffont%26gt%3B%22%20style%3D%22rounded%3D0%3BwhiteSpace%3Dwrap%3Bhtml%3D1%3BfillColor%3D%23FFE100%3BgradientColor%3Dnone%3BfontSize%3D15%3B%22%20vertex%3D%221%22%20parent%3D%221%22%3E%3CmxGeometry%20x%3D%22-410%22%20y%3D%22500%22%20width%3D%22460%22%20height%3D%22100%22%20as%3D%22geometry%22%2F%3E%3C%2FmxCell%3E%3C%2Froot%3E%3C%2FmxGraphModel%3E&lt;/span&gt;&lt;span style=&quot;color: rgba(0 , 0 , 0 , 0) ; font-family: monospace ; font-size: 0px&quot;&gt;%3CmxGraphModel%3E%3Croot%3E%3CmxCell%20id%3D%220%22%2F%3E%3CmxCell%20id%3D%221%22%20parent%3D%220%22%2F%3E%3CmxCell%20id%3D%222%22%20value%3D%22%26lt%3Bfont%20style%3D%26quot%3Bfont-size%3A%2045px%26quot%3B%20face%3D%26quot%3BTimes%20New%20Roman%26quot%3B%26gt%3BContrase%C3%B1a%26lt%3B%2Ffont%26gt%3B%22%20style%3D%22rounded%3D0%3BwhiteSpace%3Dwrap%3Bhtml%3D1%3BfillColor%3D%23FFE100%3BgradientColor%3Dnone%3B%22%20vertex%3D%221%22%20parent%3D%221%22%3E%3CmxGeometry%20x%3D%22-420%22%20y%3D%22680%22%20width%3D%22460%22%20height%3D%22100%22%20as%3D%22geometry%22%2F%3E%3C%2FmxCell%3E%3CmxCell%20id%3D%223%22%20value%3D%22%26lt%3Bfont%20face%3D%26quot%3BTimes%20New%20Roman%26quot%3B%26gt%3B%26lt%3Bfont%20style%3D%26quot%3Bfont-size%3A%2045px%26quot%3B%26gt%3BUsuario%26lt%3B%2Ffont%26gt%3B%26lt%3Bfont%20style%3D%26quot%3Bfont-size%3A%2030px%26quot%3B%26gt%3B%26amp%3Bnbsp%3B%26lt%3B%2Ffont%26gt%3B%26lt%3B%2Ffont%26gt%3B%22%20style%3D%22rounded%3D0%3BwhiteSpace%3Dwrap%3Bhtml%3D1%3BfillColor%3D%23FFE100%3BgradientColor%3Dnone%3BfontSize%3D15%3B%22%20vertex%3D%221%22%20parent%3D%221%22%3E%3CmxGeometry%20x%3D%22-410%22%20y%3D%22500%22%20width%3D%22460%22%20height%3D%22100%22%20as%3D%22geometry%22%2F%3E%3C%2FmxCell%3E%3C%2Froot%3E%3C%2FmxGraphModel%3E&lt;/span&gt;" style="whiteSpace=wrap;html=1;aspect=fixed;fontSize=31;" vertex="1" parent="6_R9OX6qBNHlAfySgqB_-1">
          <mxGeometry x="-370" y="540" width="260" height="260" as="geometry" />
        </mxCell>
        <mxCell id="6_R9OX6qBNHlAfySgqB_-5" value="&lt;font face=&quot;Times New Roman&quot; style=&quot;font-size: 35px&quot;&gt;Contraseña&lt;/font&gt;" style="rounded=0;whiteSpace=wrap;html=1;" vertex="1" parent="6_R9OX6qBNHlAfySgqB_-1">
          <mxGeometry x="-355.31" y="645" width="235.31" height="45" as="geometry" />
        </mxCell>
        <mxCell id="6_R9OX6qBNHlAfySgqB_-6" value="&lt;font face=&quot;Times New Roman&quot; style=&quot;font-size: 35px&quot;&gt;&lt;font style=&quot;font-size: 35px&quot;&gt;Usuario&lt;/font&gt;&lt;font style=&quot;font-size: 35px&quot;&gt;&amp;nbsp;&lt;/font&gt;&lt;/font&gt;" style="rounded=0;whiteSpace=wrap;html=1;fontSize=15;" vertex="1" parent="6_R9OX6qBNHlAfySgqB_-1">
          <mxGeometry x="-358" y="570" width="238" height="40" as="geometry" />
        </mxCell>
        <mxCell id="6_R9OX6qBNHlAfySgqB_-7" value="Inició de sesión" style="labelPosition=center;verticalLabelPosition=middle;align=center;html=1;shape=mxgraph.basic.button;dx=10;fillColor=#FFE100;gradientColor=none;fontSize=31;" vertex="1" parent="6_R9OX6qBNHlAfySgqB_-1">
          <mxGeometry x="-355.31" y="715" width="235.31" height="65" as="geometry" />
        </mxCell>
        <mxCell id="6_R9OX6qBNHlAfySgqB_-8" value="" style="verticalLabelPosition=bottom;verticalAlign=top;html=1;shape=mxgraph.basic.half_circle;fontSize=31;rotation=-165;" vertex="1" parent="6_R9OX6qBNHlAfySgqB_-1">
          <mxGeometry x="-413" y="370" width="120" height="70" as="geometry" />
        </mxCell>
        <mxCell id="6_R9OX6qBNHlAfySgqB_-9" value="" style="shape=loopLimit;whiteSpace=wrap;html=1;fontSize=31;rotation=-110;strokeColor=#d6b656;fillColor=#FFE100;" vertex="1" parent="6_R9OX6qBNHlAfySgqB_-1">
          <mxGeometry x="-450" y="360" width="104.17" height="136.63" as="geometry" />
        </mxCell>
      </root>
    </mxGraphModel>
  </diagram>
</mxfile>
